<?xml version="1.0" encoding="UTF-8" standalone="no"?>
<svg
   width="49.970993"
   height="27.941994"
   viewBox="0 0 56.217367 31.434743"
   version="1.1"
   id="svg4"
   sodipodi:docname="toggle_off.svg"
   inkscape:version="1.4 (e7c3feb100, 2024-10-09)"
   xmlns:inkscape="http://www.inkscape.org/namespaces/inkscape"
   xmlns:sodipodi="http://sodipodi.sourceforge.net/DTD/sodipodi-0.dtd"
   xmlns="http://www.w3.org/2000/svg"
   xmlns:svg="http://www.w3.org/2000/svg">
  <defs
     id="defs4" />
  <sodipodi:namedview
     id="namedview4"
     pagecolor="#ffffff"
     bordercolor="#000000"
     borderopacity="0.25"
     inkscape:showpageshadow="2"
     inkscape:pageopacity="0.0"
     inkscape:pagecheckerboard="0"
     inkscape:deskcolor="#d1d1d1"
     inkscape:zoom="6.5"
     inkscape:cx="30"
     inkscape:cy="35.692308"
     inkscape:window-width="1440"
     inkscape:window-height="923"
     inkscape:window-x="0"
     inkscape:window-y="0"
     inkscape:window-maximized="1"
     inkscape:current-layer="svg4">
    <inkscape:page
       x="0"
       y="0"
       width="56.217365"
       height="31.434744"
       id="page2"
       margin="0"
       bleed="0" />
  </sodipodi:namedview>
  <path
     fill="#1c71d8"
     d="m 45.737372,25.697371 h -30.04 c -5.513,0 -9.98,-4.469 -9.98,-9.98 0,-5.511 4.468,-9.98 9.98,-9.98 h 30.04 c 5.511,0 9.98,4.468 9.98,9.98 0,5.511 -4.469,9.98 -9.98,9.98"
     id="path1"
     style="stroke-width:1;stroke-linecap:round;stroke-linejoin:round;stroke-miterlimit:10;fill:#b3b3b3" />
  <path
     fill="#97c0f2"
     d="m 22.720372,22.789371 c -3.905,3.905 -10.238,3.905 -14.143,0 -3.905,-3.905 -3.906,-10.238 0,-14.144"
     id="path2"
     style="stroke-width:1;stroke-linecap:round;stroke-linejoin:round;stroke-miterlimit:10" />
  <path
     d="m 45.737372,25.697371 h -30.04 c -5.513,0 -9.98,-4.469 -9.98,-9.98 v 0 c 0,-5.512 4.468,-9.98 9.98,-9.98 h 30.04 c 5.511,0 9.98,4.468 9.98,9.98 v 0 c 0,5.511 -4.469,9.98 -9.98,9.98"
     id="path3"
     style="fill:none;stroke:#000000;stroke-width:1;stroke-linecap:round;stroke-linejoin:round;stroke-miterlimit:10" />
  <circle
     cx="-15.717371"
     cy="15.717371"
     r="14.968996"
     fill="#97c0f2"
     id="circle1"
     transform="scale(-1,1)"
     style="stroke-width:1.49675;stroke-linecap:round;stroke-linejoin:round;stroke-miterlimit:10" />
  <circle
     cx="-15.717371"
     cy="15.717371"
     r="14.968996"
     id="circle3"
     transform="scale(-1,1)"
     style="fill:none;stroke:#000000;stroke-width:1.49675;stroke-linecap:round;stroke-linejoin:round;stroke-miterlimit:10" />
</svg>
